<?xml version="1.0" standalone="no"?>
<!DOCTYPE svg PUBLIC "-//W3C//DTD SVG 20010904//EN"
 "http://www.w3.org/TR/2001/REC-SVG-20010904/DTD/svg10.dtd">
<svg version="1.0" xmlns="http://www.w3.org/2000/svg"
 width="1000.000000pt" height="1000.000000pt" viewBox="0 0 1000.000000 1000.000000"
 preserveAspectRatio="xMidYMid meet">
<metadata>
Created by potrace 1.14, written by Peter Selinger 2001-2017
</metadata>
<g transform="translate(0.000000,1000.000000) scale(0.100000,-0.100000)"
fill="#000000" stroke="none">
<path d="M1104 9165 l-1 -726 91 3 90 3 16 56 c39 131 99 216 176 250 107 48
91 48 1542 48 l1362 0 0 -494 0 -495 -1577 -2 -1576 -3 -1 -88 c-1 -86 0 -88
24 -93 14 -3 61 -20 105 -37 85 -33 157 -91 189 -154 45 -90 44 14 45 -3483 0
-3484 2 -3355 -42 -3460 -34 -80 -115 -143 -238 -184 -80 -27 -86 -34 -83
-106 1 -25 2 -57 3 -72 l1 -28 804 0 804 0 1 89 2 88 -53 18 c-202 66 -267
135 -304 325 -4 19 -7 691 -8 1492 l-1 1458 953 0 953 0 -4 -617 c-2 -340 -7
-631 -11 -648 -32 -134 -72 -187 -187 -244 -44 -22 -96 -43 -115 -47 -20 -4
-38 -13 -41 -22 -6 -13 -7 -61 -4 -147 l1 -25 805 0 805 0 0 89 0 89 -52 18
c-197 64 -267 136 -298 304 -9 46 -12 239 -12 645 0 319 1 586 1 593 1 8 24
12 79 12 l78 0 34 -56 c19 -30 42 -66 50 -80 8 -13 121 -191 250 -394 129
-203 242 -381 250 -395 8 -14 42 -67 74 -118 33 -50 74 -114 91 -142 18 -27
146 -230 285 -450 139 -220 267 -422 285 -450 76 -118 418 -659 480 -760 94
-152 145 -254 145 -292 0 -24 -9 -41 -30 -62 -31 -30 -153 -81 -193 -81 -44 0
-50 -13 -51 -104 l-1 -86 893 0 c490 0 892 3 893 8 3 42 3 165 -1 167 -3 2
-34 6 -68 9 -128 12 -259 74 -351 167 -24 25 -130 179 -236 344 -362 562 -500
776 -515 800 -8 14 -85 133 -170 265 -85 132 -171 265 -190 295 -49 78 -351
547 -435 676 -38 60 -91 141 -117 181 -194 305 -294 459 -319 495 -16 23 -29
44 -29 48 0 3 -7 13 -15 21 -21 22 -19 34 8 35 12 0 29 2 37 4 8 1 46 6 83 9
37 4 78 9 90 12 12 2 39 6 62 9 269 39 568 132 810 252 98 49 313 188 385 250
119 101 272 263 348 368 113 158 207 355 266 562 33 114 41 151 52 238 3 22 7
46 10 53 9 29 18 203 17 332 -1 164 -9 270 -29 370 -2 14 -6 36 -9 50 -11 59
-18 89 -37 160 -11 41 -24 84 -28 95 -66 168 -90 225 -133 305 -90 170 -195
315 -323 445 -92 95 -250 225 -272 225 -6 0 -12 4 -14 8 -7 18 -325 192 -351
192 -2 0 -22 8 -43 17 -22 9 -41 17 -44 18 -3 1 -54 17 -115 37 -168 55 -378
102 -550 123 -27 4 -61 8 -75 11 -14 2 -54 6 -90 9 -36 3 -78 7 -95 10 -27 4
-83 8 -285 21 -36 2 -238 7 -450 10 -212 4 -387 8 -389 10 -3 3 -5 864 -2 956
l1 28 1388 -3 c1489 -3 1418 -1 1526 -52 68 -33 143 -154 170 -278 l7 -28 91
3 91 3 0 700 c-1 385 -2 710 -2 723 -1 21 -5 22 -91 22 l-89 0 -11 -42 c-34
-133 -94 -224 -172 -264 -108 -55 50 -52 -3358 -53 -3398 0 -3231 -3 -3344 48
-76 33 -146 135 -177 259 l-13 52 -91 0 -91 0 0 -725z m3276 -3475 l0 -1390
-952 2 -952 3 -1 1380 c-1 759 1 1383 3 1388 2 4 430 7 953 7 l949 0 0 -1390z
m1760 1376 c25 -2 88 -7 140 -10 52 -4 106 -9 120 -11 14 -2 49 -6 78 -9 29
-4 76 -11 105 -17 28 -6 66 -13 82 -16 17 -3 89 -24 160 -48 409 -134 671
-367 801 -711 23 -62 59 -192 68 -249 3 -16 8 -48 11 -70 11 -64 13 -365 4
-436 -5 -35 -12 -82 -14 -104 -15 -106 -67 -270 -120 -375 -67 -133 -193 -288
-300 -366 -22 -16 -42 -31 -45 -34 -15 -17 -117 -75 -200 -114 -93 -44 -196
-80 -315 -110 -85 -21 -191 -40 -290 -50 -233 -24 -240 -25 -727 -32 -362 -6
-428 -5 -429 7 -1 18 -1 2706 0 2743 l1 29 413 -7 c226 -4 432 -8 457 -10z"/>
</g>
</svg>
